<?xml version="1.0" standalone="no"?>
<!DOCTYPE svg PUBLIC "-//W3C//DTD SVG 20010904//EN"
 "http://www.w3.org/TR/2001/REC-SVG-20010904/DTD/svg10.dtd">
<svg version="1.0" xmlns="http://www.w3.org/2000/svg"
 width="1024.000000pt" height="1024.000000pt" viewBox="0 0 1024.000000 1024.000000"
 preserveAspectRatio="xMidYMid meet">

<g transform="translate(0.000000,1024.000000) scale(0.100000,-0.100000)"
fill="#000000" stroke="none">
<path d="M0 5120 l0 -5120 5120 0 5120 0 0 5120 0 5120 -5120 0 -5120 0 0
-5120z m2715 1526 c406 -90 772 -353 919 -659 57 -118 76 -206 76 -350 0 -254
-92 -466 -292 -673 -183 -189 -346 -291 -757 -474 -403 -180 -473 -214 -497
-241 -12 -13 -78 -145 -148 -294 -70 -148 -137 -278 -148 -287 -30 -26 -46
-23 -170 33 -114 51 -158 85 -158 119 0 10 63 138 140 285 78 147 143 279 146
293 3 15 -13 128 -35 252 -117 654 -137 811 -127 995 12 208 59 389 151 580
117 242 304 391 546 434 73 13 268 6 354 -13z m5065 -500 l0 -210 34 37 c49
53 107 77 191 77 117 0 199 -52 246 -155 17 -36 19 -71 19 -332 l0 -293 -95 0
-95 0 0 263 c0 303 -2 311 -84 342 -75 29 -140 9 -190 -59 -20 -26 -21 -43
-24 -287 l-3 -259 -95 0 -94 0 0 543 0 542 95 0 95 0 0 -209z m-3361 88 c74
-203 235 -614 240 -614 3 0 67 158 141 350 l135 350 127 0 128 0 0 -525 0
-525 -95 0 -95 0 -2 372 -3 372 -72 -190 c-40 -104 -94 -247 -121 -319 l-49
-130 -98 0 -98 0 -94 250 c-52 138 -106 283 -121 323 -15 39 -29 72 -32 72 -3
0 -4 -169 -2 -375 l2 -375 -95 0 -95 0 0 518 c0 285 3 522 7 526 4 4 64 6 134
5 l127 -1 31 -84z m2051 -94 l0 -100 95 0 95 0 0 -80 0 -79 -92 -3 -93 -3 -3
-150 c-4 -179 3 -247 28 -277 16 -20 27 -23 87 -22 l68 1 3 -77 3 -77 -47 -7
c-127 -17 -224 1 -275 53 -51 50 -59 101 -59 351 l0 210 -70 0 -70 0 0 80 0
80 70 0 70 0 0 100 0 100 95 0 95 0 0 -100z m-605 -111 c29 -11 72 -37 94 -59
65 -63 71 -98 71 -422 l0 -278 -84 0 -84 0 -7 51 -7 52 -26 -33 c-62 -79 -229
-107 -337 -56 -95 44 -141 122 -133 227 6 77 43 133 118 174 53 29 60 30 214
33 l158 4 -6 52 c-9 64 -28 94 -71 112 -72 30 -161 6 -187 -51 -11 -24 -15
-25 -104 -25 l-93 0 6 33 c20 104 104 181 227 207 60 13 189 2 251 -21z m1397
5 c93 -31 176 -130 191 -226 l6 -38 -97 0 -97 0 -20 43 c-22 45 -86 87 -135
87 -46 -1 -107 -36 -137 -81 -25 -38 -28 -52 -31 -146 -4 -95 -2 -107 22 -157
30 -60 55 -81 116 -95 77 -17 147 18 172 86 l12 33 99 0 99 0 -7 -37 c-19
-100 -92 -185 -194 -224 -47 -17 -73 -20 -161 -17 -90 3 -113 7 -161 31 -62
30 -127 93 -157 154 -53 103 -57 293 -9 398 32 69 94 137 152 168 90 47 234
57 337 21z m-1426 -1012 c103 -83 2 -228 -116 -167 -37 19 -50 43 -50 90 0 54
44 95 102 95 26 0 52 -7 64 -18z m2769 -13 c124 -23 218 -99 251 -203 10 -31
15 -58 12 -61 -3 -3 -47 -8 -99 -12 l-94 -6 -18 41 c-59 134 -317 114 -317
-24 0 -82 54 -123 202 -154 134 -29 195 -50 247 -84 134 -90 150 -298 32 -416
-63 -63 -137 -91 -258 -98 -184 -10 -325 45 -387 151 -26 44 -49 154 -35 163
5 2 49 2 98 -2 86 -6 89 -8 94 -33 15 -72 93 -120 196 -121 117 0 192 61 177
144 -12 63 -68 94 -219 126 -178 36 -263 83 -310 168 -52 96 -43 219 22 309
72 99 235 144 406 112z m-4009 -23 c149 -48 228 -163 228 -328 0 -69 -5 -86
-35 -145 -24 -48 -48 -78 -83 -104 -72 -55 -131 -71 -283 -76 l-133 -6 0 -163
0 -164 -95 0 -95 0 0 506 0 506 223 -5 c166 -4 235 -9 273 -21z m3245 -14 c77
-30 141 -89 169 -154 19 -42 24 -71 24 -138 0 -130 -42 -209 -144 -268 -25
-14 -46 -27 -48 -28 -2 -1 46 -86 107 -189 61 -102 111 -188 111 -190 0 -3
-47 -5 -104 -5 l-104 0 -88 153 c-128 224 -112 207 -200 207 l-74 0 0 -180 0
-180 -95 0 -95 0 0 501 0 501 243 -4 c221 -4 247 -6 298 -26z m-849 -139 l3
-98 83 -3 82 -3 0 -74 0 -75 -85 0 -85 0 0 -162 c0 -176 9 -235 36 -255 10 -7
44 -13 76 -13 l58 0 0 -74 0 -73 -46 -7 c-66 -9 -95 -8 -156 5 -64 14 -120 65
-137 124 -6 23 -11 127 -11 248 l0 207 -60 0 -60 0 0 78 0 77 60 -3 60 -4 0
101 0 101 90 0 89 0 3 -97z m-1623 -116 c66 -24 144 -94 176 -157 32 -62 48
-161 41 -238 -14 -140 -78 -237 -194 -294 -62 -31 -73 -33 -172 -33 -92 0
-112 3 -160 26 -112 52 -170 127 -196 250 -18 86 -11 177 18 256 24 66 97 147
159 179 93 46 221 51 328 11z m1148 -6 c50 -25 96 -79 111 -129 7 -23 12 -141
12 -307 l1 -270 -90 -3 -91 -3 0 246 c0 284 -2 294 -77 327 -77 34 -161 5
-194 -65 -16 -37 -19 -68 -19 -274 l0 -233 -90 0 -90 0 0 360 0 360 80 0 c87
0 85 2 92 -75 l3 -30 22 35 c56 91 215 120 330 61z m-647 -352 l0 -359 -95 0
-95 0 0 360 0 359 88 3 c48 2 90 2 95 0 4 -2 7 -165 7 -363z"/>
<path d="M2425 6514 c-11 -2 -45 -9 -75 -15 -203 -42 -348 -198 -449 -482 -90
-255 -101 -507 -39 -864 l21 -123 71 -58 c98 -81 154 -117 255 -167 94 -47
274 -105 387 -125 l70 -13 110 47 c341 144 629 402 724 649 35 88 60 208 60
281 0 84 -27 205 -61 274 -135 275 -521 533 -879 587 -92 14 -153 17 -195 9z
m108 -255 c25 -11 47 -47 47 -75 0 -26 -47 -64 -79 -64 -33 0 -71 39 -71 72 0
29 19 58 43 68 30 12 32 12 60 -1z m286 -127 c32 -25 31 -77 -1 -109 -35 -35
-91 -26 -113 17 -20 38 -19 52 6 84 25 31 75 35 108 8z m250 -97 c48 -24 56
-81 16 -120 -32 -33 -74 -33 -105 0 -39 41 -26 105 25 125 28 12 33 12 64 -5z
m-664 -31 c26 -10 45 -63 34 -93 -31 -79 -143 -62 -143 22 0 61 50 93 109 71z
m294 -140 c12 -15 21 -38 21 -51 0 -32 -42 -73 -75 -73 -34 0 -75 42 -75 76 0
68 88 100 129 48z m635 15 c59 -27 55 -115 -6 -140 -26 -10 -35 -10 -57 2 -41
23 -57 60 -42 96 19 46 60 62 105 42z m-359 -139 c28 -31 24 -79 -10 -107 -30
-27 -65 -25 -97 4 -23 20 -23 80 -1 105 23 25 84 24 108 -2z m-680 -15 c31
-30 32 -57 3 -89 -47 -51 -128 -25 -128 41 0 65 79 95 125 48z m920 -97 c26
-12 41 -47 36 -83 -3 -28 -38 -55 -72 -55 -66 0 -95 88 -43 129 31 24 43 26
79 9z m-654 -27 c50 -40 17 -131 -48 -131 -32 0 -73 42 -73 75 0 33 41 75 73
75 14 0 35 -8 48 -19z m252 -113 c50 -26 60 -69 26 -112 -41 -52 -129 -19
-129 48 0 26 16 49 45 64 26 14 32 14 58 0z m-659 -19 c50 -40 23 -129 -39
-129 -33 0 -75 42 -75 75 0 30 41 75 68 75 11 0 31 -9 46 -21z m951 -114 c48
-47 19 -119 -49 -119 -43 0 -63 17 -72 61 -5 26 -1 37 19 57 33 33 71 33 102
1z m-666 -31 c28 -36 26 -70 -5 -101 -20 -20 -31 -24 -57 -19 -93 18 -87 146
7 146 25 0 40 -7 55 -26z m274 -126 c55 -65 -35 -155 -102 -100 -33 26 -31 79
4 109 32 28 69 25 98 -9z"/>
<path d="M1930 4782 c0 -4 14 -83 31 -177 22 -120 29 -182 24 -215 -4 -28 -52
-134 -132 -288 -68 -134 -123 -245 -121 -246 6 -5 47 -26 51 -26 2 0 53 107
113 238 139 301 139 302 372 415 163 79 166 81 132 88 -112 24 -285 99 -402
175 -38 24 -68 40 -68 36z"/>
<path d="M5720 5600 c-114 -6 -142 -17 -161 -62 -15 -36 -4 -80 29 -111 73
-68 192 -31 236 75 17 39 21 95 9 100 -5 2 -55 1 -113 -2z"/>
<path d="M4290 4665 l0 -175 75 0 c109 0 174 17 211 54 82 82 61 231 -39 276
-32 15 -65 20 -144 20 l-103 0 0 -175z"/>
<path d="M7490 4681 l0 -161 115 0 c95 0 123 3 154 20 76 38 104 160 54 229
-40 53 -78 66 -205 70 l-118 3 0 -161z"/>
<path d="M5166 4590 c-40 -12 -93 -66 -108 -109 -7 -20 -12 -73 -12 -117 0
-67 5 -91 25 -130 63 -124 237 -124 299 1 21 42 25 64 25 135 0 71 -4 93 -25
135 -39 77 -118 110 -204 85z"/>
</g>
</svg>
